<svg width="256" height="256" xmlns="http://www.w3.org/2000/svg" preserveAspectRatio="xMidYMid"><path d="M153 166l-63-13-1 1 58 83 3-3 10-61c-4-1-6-4-7-7zm-23-82a13 13 0 01-13 5l-29 45 77-33v-1-1l-35-15zm2-9l37 16 4-2 6-38-23-23-26 41 2 6zm78 7l-23-23-5 31 3 3 25-11zm-56 75c2-3 5-5 9-5l7-42-1-1-77 33v2l62 13zm62-69l-27 12 67 28-40-40zm-48 86l-8 50 47-47-34-7-5 4zm-91-13l-5-1-16 24-6-6 15-23-1-1-27 11-6-6 29-13-53-11-7-7 2-2 62 12 2-3-29-43 6-6 31 45a15 15 0 017 0l29-45a13 13 0 01-4-13L70 58l7-6 34 14a13 13 0 0112-2l27-42-22-22L0 128l128 128 13-13-58-84-6 2zm101-49l-7 42c3 2 4 5 5 8l38 8 35-35-63-28c-2 3-5 4-8 5z" fill="#25C7B7"/></svg>