<?xml version="1.0" standalone="no"?>
<!DOCTYPE svg PUBLIC "-//W3C//DTD SVG 20010904//EN"
 "http://www.w3.org/TR/2001/REC-SVG-20010904/DTD/svg10.dtd">
<svg version="1.0" xmlns="http://www.w3.org/2000/svg"
 width="512.000000pt" height="512.000000pt" viewBox="0 0 512.000000 512.000000"
 preserveAspectRatio="xMidYMid meet">
<metadata>
Created by potrace 1.16, written by Peter Selinger 2001-2019
</metadata>
<g transform="translate(0.000000,512.000000) scale(0.100000,-0.100000)"
fill="#000000" stroke="none">
<path d="M2235 4893 c-665 -89 -1322 -503 -1702 -1073 -205 -308 -339 -667
-388 -1043 -20 -156 -20 -478 0 -634 144 -1105 993 -1954 2098 -2098 156 -20
478 -20 634 0 1105 144 1953 992 2098 2098 20 156 20 478 0 634 -106 811 -584
1485 -1328 1873 -232 120 -520 211 -775 244 -156 20 -484 20 -637 -1z m1275
-1249 c0 -3 -131 -149 -291 -325 l-290 -319 -540 0 c-330 0 -539 4 -537 9 2 5
131 151 288 325 l285 315 543 0 c298 1 542 -2 542 -5z m439 -793 c-13 -17
-143 -161 -289 -320 l-265 -291 -1125 0 -1124 0 35 38 c20 20 152 164 293 320
l258 282 1120 0 1121 0 -24 -29z m-696 -765 c-15 -19 -147 -165 -293 -325
l-265 -290 -544 -1 -544 0 20 23 c11 12 142 158 292 325 l273 302 545 0 545 0
-29 -34z"/>
</g>
</svg>
